<svg xmlns="http://www.w3.org/2000/svg" viewBox="0 0 499.09 121.09"><defs><style>.cls-1{fill:none;stroke:#000;stroke-miterlimit:10;stroke-width:15px;}.cls-2{fill:#0e97ce;}</style></defs><g id="Layer_2" data-name="Layer 2"><path class="cls-1" d="M137.66,98.05V35.5a6.6,6.6,0,0,0-6.6-6.59h0a6.59,6.59,0,0,0-5.76,3.39L97.52,81.94,69.74,32.3A6.6,6.6,0,0,0,64,28.91h0a6.59,6.59,0,0,0-6.59,6.59V98.05"/><path d="M309,52.91H270.37a7,7,0,1,1,0-14H322l8.54-14.93v-.07h-60.2a22,22,0,1,0,0,44.05H309a8.39,8.39,0,0,1,0,16.77H252.43v15H309a23.39,23.39,0,0,0,0-46.77Z"/><path d="M399.5,52.91H360.91a7,7,0,0,1,0-14h58.86l.07-14.93,1.28-.07H360.91a22,22,0,0,0,0,44.05H399.5a8.39,8.39,0,1,1,0,16.77h-51c-1.88,7.16-5.84,11.53-10.49,15H399.5a23.39,23.39,0,1,0,0-46.77Z"/><rect x="435.71" y="48.41" width="13.5" height="51.27"/><rect x="435.71" y="23.86" width="13.5" height="14.86"/><path class="cls-2" d="M236.72,23.86V38.4h-75a30.71,30.71,0,0,1,26.12-14.54Z"/><path class="cls-2" d="M236.72,54.43v15H157.15c-2.18-3.63-1.87-12.37,0-15Z"/><path class="cls-2" d="M236.72,85.48v14.2H187.87A30.64,30.64,0,0,1,162,85.48Z"/></g></svg>