<svg xmlns="http://www.w3.org/2000/svg" viewBox="0 0 436.91 535.14"><defs><style>.cls-1{fill:#fff;}.cls-2{fill:none;stroke:#fff;stroke-miterlimit:10;stroke-width:15px;}.cls-3{fill:#0e97ce;}</style></defs><g id="Layer_2" data-name="Layer 2"><path class="cls-1" d="M6.57,5.75c31.59,2.41,114.72,50,141.72,81.05-30.68-16.94-59.64-28.71-85.5-31.1,85.5,58.77,1.95,141.83,72.32,244.82L41.32,211.77A49.09,49.09,0,0,1,26,176.12V68C26,46.52,27,25.38,6.57,5.75Z"/><path class="cls-1" d="M431.52,5.75c-31.59,2.41-114.73,50-141.73,81.05,30.68-16.94,59.65-28.71,85.5-31.1-85.5,58.77-1.94,141.83-72.31,244.82l93.79-88.75a49.09,49.09,0,0,0,15.34-35.65V68C412.11,46.52,411.1,25.38,431.52,5.75Z"/><path class="cls-1" d="M219.07,207.89A130.88,130.88,0,0,0,180.2,164.8V326.37a37.37,37.37,0,0,0,11.88,27.33l27,25.19,27-25.19a37.37,37.37,0,0,0,11.88-27.33V164.8A130.74,130.74,0,0,0,219.07,207.89Z"/><path class="cls-2" d="M107.15,524.8V462.25a6.59,6.59,0,0,0-6.59-6.59h0a6.59,6.59,0,0,0-5.76,3.39L67,508.69,39.24,459.05a6.6,6.6,0,0,0-5.77-3.39h0a6.59,6.59,0,0,0-6.59,6.59V524.8"/><path class="cls-1" d="M278.46,479.66H239.87a7,7,0,1,1,0-14.05h51.66l8.54-14.93v-.07h-60.2a22,22,0,1,0,0,44.05h38.59a8.39,8.39,0,0,1,0,16.77H221.93v15h56.53a23.39,23.39,0,0,0,0-46.77Z"/><path class="cls-1" d="M369,479.66H330.41a7,7,0,0,1,0-14.05h58.86l.07-14.93,1.28-.07H330.41a22,22,0,0,0,0,44.05H369a8.39,8.39,0,1,1,0,16.77H318c-1.88,7.16-5.84,11.53-10.49,15H369a23.39,23.39,0,1,0,0-46.77Z"/><rect class="cls-1" x="405.21" y="475.16" width="13.5" height="51.27"/><rect class="cls-1" x="405.21" y="450.61" width="13.5" height="14.86"/><path class="cls-3" d="M206.22,450.61v14.54h-75a30.7,30.7,0,0,1,26.11-14.54Z"/><path class="cls-3" d="M206.22,481.18v15H126.65c-2.18-3.63-1.88-12.37,0-15Z"/><path class="cls-3" d="M206.22,512.23v14.2H157.36a30.64,30.64,0,0,1-25.88-14.2Z"/></g></svg>