<svg xmlns="http://www.w3.org/2000/svg" viewBox="0 0 119.59 106.77"><defs><style>.cls-1{fill:#fff;}</style></defs><g id="Layer_5" data-name="Layer 5"><ellipse class="cls-1" cx="22.83" cy="22.18" rx="12.94" ry="14.16"/><ellipse class="cls-1" cx="94.56" cy="22.18" rx="12.94" ry="14.16"/><ellipse class="cls-1" cx="58.53" cy="20.01" rx="16.55" ry="18.12"/><path class="cls-1" d="M33.52,66A38.52,38.52,0,0,1,40.4,52.21C37.2,45.74,32,40.9,23.4,40.9-2.26,40.9,1.8,84.47,1.8,84.47c9.55,6.08,19.11,7.82,28.7,5.82,0-2.7.08-6,.38-9.53A76,76,0,0,1,33.52,66Z"/><path class="cls-1" d="M96.2,40.9c-9.37,0-14.78,5.81-17.87,13.19A41.06,41.06,0,0,1,83.79,66a76,76,0,0,1,2.64,14.77c.29,3.4.39,6.54.39,9.16,10.29,2.69,20.62.64,31-5.45C117.79,84.47,121.85,40.9,96.2,40.9Z"/><path class="cls-1" d="M58.66,46.91C29,46.91,33.72,97.25,33.72,97.25c8.13,5.17,16.28,7.63,24.45,7.63,8.46,0,16.93-2.64,25.42-7.63C83.59,97.25,88.29,46.91,58.66,46.91Z"/></g></svg>